#N canvas 534 356 732 681 12;
#X obj 209 29 midirealtimein;
#X floatatom 209 54 5 0 0 0 - - -;
#X obj 209 76 sel 248;
#X obj 209 130 bng 15 250 50 0 empty empty empty 17 7 0 10 -262144
-1 -1;
#X obj 209 209 f;
#X obj 209 233 + 1;
#X msg 15 54 \; pd dsp 1 \;;
#X obj 3 30 loadbang;
#X obj 10 117 s bela_setDigital;
#X obj 209 298 dac~ 3;
#X text 235 279 A0;
#X text 204 6 usb midi clk to sync;
#X text 411 5 note / gate;
#X obj 420 131 dac~ 4;
#X obj 500 97 dac~ 5;
#X obj 209 179 spigot;
#X obj 255 99 sel 251 252;
#X msg 255 126 1;
#X msg 292 126 0;
#X text 527 78 A2;
#X text 469 131 A1;
#X msg 4 141 hw 0 0 0;
#X obj 4 165 send bela_setMidi;
#X obj 420 56 - 36;
#X obj 420 80 / 12;
#X obj 420 104 / 5;
#N canvas 469 202 450 528 tempo 0;
#X obj 119 83 bng 15 250 50 0 empty empty empty 17 7 0 10 -262144 -1
-1;
#X obj 119 107 tgl 15 0 empty empty empty 17 7 0 10 -262144 -1 -1 0
1;
#X obj 119 131 sel 0;
#X obj 119 155 timer;
#X floatatom 119 204 5 0 0 0 - - -;
#X obj 164 140 t b;
#X obj 119 179 expr 1000/($f1/60);
#X obj 118 7 inlet;
#X obj 119 227 outlet;
#X obj 119 35 % 24;
#X obj 43 128 outlet;
#X msg 43 83 1;
#X msg 75 83 0;
#X obj 43 107 tgl 15 0 empty empty empty 17 7 0 10 -262144 -1 -1 0
1;
#X obj 119 59 sel 11;
#X connect 0 0 1 0;
#X connect 1 0 2 0;
#X connect 2 0 3 0;
#X connect 2 1 5 0;
#X connect 3 0 6 0;
#X connect 4 0 8 0;
#X connect 5 0 3 1;
#X connect 6 0 4 0;
#X connect 7 0 9 0;
#X connect 9 0 14 0;
#X connect 11 0 13 0;
#X connect 12 0 13 0;
#X connect 13 0 10 0;
#X connect 14 0 0 0;
#X connect 14 0 11 0;
#X connect 14 1 12 0;
#X restore 209 258 pd tempo;
#X floatatom 262 299 5 0 0 0 - - -;
#X text 456 81 V/oct;
#X msg 292 150 9;
#X obj 209 281 tgl 15 0 empty empty empty 17 7 0 10 -262144 -1 -1 0
1;
#X msg 10 93 out 12 \, out 14 \, out 16;
#X obj 458 382 r red;
#X obj 458 310 r green;
#X obj 458 238 r blue;
#X obj 419 284 s bela_digitalOut16;
#X obj 500 120 s blue;
#X floatatom 500 51 5 0 0 0 - - -;
#X obj 419 357 s bela_digitalOut14;
#X obj 419 430 s bela_digitalOut12;
#X obj 569 311 loadbang;
#X obj 569 359 f;
#X obj 569 383 + 1;
#X obj 569 431 s br;
#X obj 419 238 r br;
#X obj 419 381 r br;
#X obj 419 310 r br;
#X text 417 215 LED control;
#X text 561 288 Brightness;
#X text 272 281 BPM;
#X obj 569 407 % 2;
#X obj 569 335 metro 10;
#X obj 329 167 s red;
#X obj 209 322 s green;
#X obj 419 407 *;
#X obj 419 335 *;
#X obj 419 261 *;
#X obj 329 145 f;
#N canvas 0 22 384 410 mono 1;
#X obj 60 321 outlet;
#X obj 111 323 outlet;
#X obj 61 116 - 1;
#X obj 61 141 pack 0 0 0;
#N canvas 0 22 252 372 guardaNotas 0;
#X obj 50 83 unpack 0 0 0;
#N canvas 0 22 247 267 ++ 0;
#X obj 41 40 inlet;
#X obj 110 41 inlet;
#X obj 41 99 f;
#X obj 41 133 + 1;
#X msg 110 82 0;
#X obj 41 165 outlet;
#X msg 41 73 bang;
#X connect 0 0 6 0;
#X connect 1 0 4 0;
#X connect 2 0 3 0;
#X connect 3 0 2 1;
#X connect 3 0 5 0;
#X connect 4 0 2 1;
#X connect 6 0 2 0;
#X restore 50 224 pd ++;
#X obj 50 49 inlet;
#X obj 50 282 *;
#X obj 84 265 > 0;
#X msg 50 198 bang;
#X text 106 228 evita cuenta eterna;
#X obj 104 207 r \$0-ordenreset;
#X obj 92 127 tabwrite \$0-velocity;
#X obj 32 166 tabwrite \$0-nota;
#X obj 50 307 tabwrite \$0-orden;
#X connect 0 0 5 0;
#X connect 0 0 9 0;
#X connect 0 1 4 0;
#X connect 0 1 8 0;
#X connect 0 2 8 1;
#X connect 0 2 9 1;
#X connect 0 2 10 1;
#X connect 1 0 3 0;
#X connect 2 0 0 0;
#X connect 3 0 10 0;
#X connect 4 0 3 1;
#X connect 5 0 1 0;
#X connect 7 0 1 1;
#X restore 88 211 pd guardaNotas;
#X msg 61 163 \$2 \$3 \$1;
#X obj 61 186 t b l;
#N canvas 0 22 309 311 changeNote 0;
#X text 91 9 evita redundancia.;
#X obj 70 51 inlet;
#X obj 109 104 unpack;
#X obj 142 171 &&;
#X obj 70 76 t l l;
#X obj 70 210 spigot;
#X obj 109 138 == -1;
#X obj 157 138 == -1;
#X obj 142 193 == 0;
#X obj 179 102 unpack;
#X obj 70 243 outlet;
#X connect 1 0 4 0;
#X connect 2 0 6 0;
#X connect 2 1 7 0;
#X connect 3 0 8 0;
#X connect 4 0 5 0;
#X connect 4 1 2 0;
#X connect 5 0 9 0;
#X connect 5 0 10 0;
#X connect 6 0 3 0;
#X connect 7 0 3 1;
#X connect 8 0 5 1;
#X connect 9 0 6 1;
#X connect 9 1 7 1;
#X restore 61 264 pd changeNote;
#X obj 61 290 unpack;
#N canvas 386 100 412 676 note 0;
#X obj 63 66 t b b b;
#X text 18 603 mensaje midi;
#X obj 63 31 inlet;
#X obj 63 619 outlet;
#X obj 86 254 moses 0;
#X msg 179 237 0;
#X floatatom 191 280 5 0 0 0 - - -;
#X obj 125 351 f;
#X text 198 257 saca numero mayor;
#X obj 63 368 f;
#X obj 113 181 t f f;
#X text 187 349 numero mayor;
#X text 110 369 indice;
#X floatatom 168 385 5 0 0 0 - - -;
#X msg 125 321 bang;
#X obj 125 279 t f f;
#X obj 63 395 t f f;
#X obj 63 582 pack;
#X text 43 554 memoria ultima nota;
#X obj 53 492 t f f b;
#N canvas 733 352 236 271 cuenta11 0;
#X obj 56 160 + 1;
#X obj 56 112 until;
#X obj 56 87 t f b;
#X msg 114 120 -1;
#X obj 56 137 f;
#X obj 56 38 inlet;
#X obj 56 184 outlet;
#X msg 56 64 11;
#X connect 0 0 4 1;
#X connect 0 0 6 0;
#X connect 1 0 4 0;
#X connect 2 0 1 0;
#X connect 2 1 3 0;
#X connect 3 0 4 1;
#X connect 4 0 0 0;
#X connect 5 0 7 0;
#X connect 7 0 2 0;
#X restore 113 128 pd cuenta11;
#X msg 165 509 10;
#X obj 235 436 sel 10;
#X text 171 455 reset orden \, evita cuenta eterna;
#X text 149 404 si llega a 10 en "0" \, note off;
#X obj 235 479 s \$0-ordenreset;
#X obj 113 207 tabread \$0-orden;
#X obj 84 434 tabread \$0-velocity;
#X obj 63 462 tabread \$0-nota;
#X obj 72 534 tabwrite \$0-nota;
#X connect 0 0 9 0;
#X connect 0 1 20 0;
#X connect 0 2 5 0;
#X connect 2 0 0 0;
#X connect 4 1 15 0;
#X connect 5 0 4 1;
#X connect 6 0 4 1;
#X connect 7 0 9 1;
#X connect 9 0 13 0;
#X connect 9 0 16 0;
#X connect 10 0 26 0;
#X connect 10 1 7 1;
#X connect 14 0 7 0;
#X connect 15 0 14 0;
#X connect 15 1 6 0;
#X connect 16 0 28 0;
#X connect 16 1 27 0;
#X connect 16 1 22 0;
#X connect 17 0 3 0;
#X connect 19 0 17 0;
#X connect 19 1 29 0;
#X connect 19 2 21 0;
#X connect 20 0 10 0;
#X connect 21 0 29 1;
#X connect 22 0 25 0;
#X connect 26 0 4 0;
#X connect 27 0 17 1;
#X connect 28 0 19 0;
#X restore 61 234 pd note;
#X obj 152 61 table \$0-nota 11;
#X obj 152 83 table \$0-velocity 11;
#X obj 152 105 table \$0-orden 11;
#X obj 72 58 notein \$1;
#X obj 72 86 poly 10 1;
#X connect 2 0 3 0;
#X connect 3 0 5 0;
#X connect 5 0 6 0;
#X connect 6 0 9 0;
#X connect 6 1 4 0;
#X connect 7 0 8 0;
#X connect 8 0 0 0;
#X connect 8 1 1 0;
#X connect 9 0 7 0;
#X connect 13 0 14 0;
#X connect 13 1 14 1;
#X connect 14 0 2 0;
#X connect 14 1 3 1;
#X connect 14 2 3 2;
#X restore 420 32 pd mono;
#X connect 0 0 1 0;
#X connect 1 0 2 0;
#X connect 2 0 3 0;
#X connect 2 1 16 0;
#X connect 3 0 15 0;
#X connect 3 0 57 0;
#X connect 4 0 5 0;
#X connect 5 0 4 1;
#X connect 5 0 26 0;
#X connect 7 0 6 0;
#X connect 7 0 31 0;
#X connect 7 0 21 0;
#X connect 15 0 4 0;
#X connect 16 0 17 0;
#X connect 16 1 18 0;
#X connect 17 0 15 1;
#X connect 17 0 30 0;
#X connect 17 0 57 1;
#X connect 18 0 29 0;
#X connect 18 0 15 1;
#X connect 18 0 57 1;
#X connect 18 0 37 0;
#X connect 21 0 22 0;
#X connect 23 0 24 0;
#X connect 24 0 25 0;
#X connect 25 0 13 0;
#X connect 26 0 30 0;
#X connect 26 1 27 0;
#X connect 29 0 4 0;
#X connect 30 0 9 0;
#X connect 30 0 53 0;
#X connect 31 0 8 0;
#X connect 32 0 54 1;
#X connect 33 0 55 1;
#X connect 34 0 56 1;
#X connect 37 0 14 0;
#X connect 37 0 36 0;
#X connect 40 0 51 0;
#X connect 41 0 42 0;
#X connect 42 0 41 1;
#X connect 42 0 50 0;
#X connect 44 0 56 0;
#X connect 45 0 54 0;
#X connect 46 0 55 0;
#X connect 50 0 43 0;
#X connect 51 0 41 0;
#X connect 54 0 39 0;
#X connect 55 0 38 0;
#X connect 56 0 35 0;
#X connect 57 0 52 0;
#X connect 58 0 23 0;
#X connect 58 1 37 0;
