#N canvas 19 192 732 681 12;
#X obj 180 29 midirealtimein;
#X floatatom 180 54 5 0 0 0 - - -;
#X obj 180 76 sel 248;
#X obj 180 130 bng 15 250 50 0 empty empty empty 17 7 0 10 -262144
-1 -1;
#X obj 180 209 f;
#X obj 180 233 + 1;
#X msg 15 54 \; pd dsp 1 \;;
#X obj 3 30 loadbang;
#X obj 10 117 s bela_setDigital;
#X obj 180 298 dac~ 3;
#X obj 420 39 notein;
#X text 206 279 A0;
#X text 175 6 usb midi clk to sync;
#X text 411 12 note / gate;
#X obj 420 138 dac~ 4;
#X obj 500 104 dac~ 5;
#X obj 180 179 spigot;
#X obj 226 99 sel 251 252;
#X msg 226 126 1;
#X msg 263 126 0;
#X text 527 85 A2;
#X text 469 138 A1;
#X msg 4 141 hw 0 0 0;
#X obj 4 165 send bela_setMidi;
#X obj 420 63 - 36;
#X obj 420 87 / 12;
#X obj 420 111 / 5;
#N canvas 469 202 450 528 tempo 0;
#X obj 119 83 bng 15 250 50 0 empty empty empty 17 7 0 10 -262144 -1
-1;
#X obj 119 107 tgl 15 0 empty empty empty 17 7 0 10 -262144 -1 -1 0
1;
#X obj 119 131 sel 0;
#X obj 119 155 timer;
#X floatatom 119 204 5 0 0 0 - - -;
#X obj 164 140 t b;
#X obj 119 179 expr 1000/($f1/60);
#X obj 118 7 inlet;
#X obj 119 227 outlet;
#X obj 119 35 % 24;
#X obj 43 128 outlet;
#X msg 43 83 1;
#X msg 75 83 0;
#X obj 43 107 tgl 15 0 empty empty empty 17 7 0 10 -262144 -1 -1 0
1;
#X obj 119 59 sel 11;
#X connect 0 0 1 0;
#X connect 1 0 2 0;
#X connect 2 0 3 0;
#X connect 2 1 5 0;
#X connect 3 0 6 0;
#X connect 4 0 8 0;
#X connect 5 0 3 1;
#X connect 6 0 4 0;
#X connect 7 0 9 0;
#X connect 9 0 14 0;
#X connect 11 0 13 0;
#X connect 12 0 13 0;
#X connect 13 0 10 0;
#X connect 14 0 0 0;
#X connect 14 0 11 0;
#X connect 14 1 12 0;
#X restore 180 258 pd tempo;
#X floatatom 233 299 5 0 0 0 - - -;
#X text 456 88 V/oct;
#X msg 263 150 9;
#X obj 180 281 tgl 15 0 empty empty empty 17 7 0 10 -262144 -1 -1 0
1;
#X msg 10 93 out 12 \, out 14 \, out 16;
#X obj 420 165 spigot;
#X obj 458 382 r red;
#X obj 458 310 r green;
#X obj 458 238 r blue;
#X obj 419 284 s bela_digitalOut16;
#X obj 500 127 s blue;
#X floatatom 500 58 5 0 0 0 - - -;
#X obj 419 357 s bela_digitalOut14;
#X obj 419 430 s bela_digitalOut12;
#X obj 569 311 loadbang;
#X obj 569 359 f;
#X obj 569 383 + 1;
#X obj 551 321 bng 15 250 50 0 empty empty empty 17 7 0 10 -262144
-1 -1;
#X obj 569 431 s br;
#X obj 419 238 r br;
#X obj 419 381 r br;
#X obj 419 310 r br;
#X text 417 215 LED control;
#X text 561 288 Brightness;
#X text 243 281 BPM;
#X obj 569 407 % 2;
#X obj 569 335 metro 10;
#X obj 300 167 s red;
#X obj 180 322 s green;
#X obj 419 407 *;
#X obj 419 335 *;
#X obj 419 261 *;
#X obj 300 145 f;
#X connect 0 0 1 0;
#X connect 1 0 2 0;
#X connect 2 0 3 0;
#X connect 2 1 17 0;
#X connect 3 0 16 0;
#X connect 3 0 60 0;
#X connect 4 0 5 0;
#X connect 5 0 4 1;
#X connect 5 0 27 0;
#X connect 7 0 6 0;
#X connect 7 0 32 0;
#X connect 7 0 22 0;
#X connect 10 0 24 0;
#X connect 10 1 33 1;
#X connect 10 1 39 0;
#X connect 16 0 4 0;
#X connect 17 0 18 0;
#X connect 17 1 19 0;
#X connect 18 0 16 1;
#X connect 18 0 31 0;
#X connect 18 0 60 1;
#X connect 19 0 30 0;
#X connect 19 0 16 1;
#X connect 19 0 60 1;
#X connect 22 0 23 0;
#X connect 24 0 25 0;
#X connect 25 0 26 0;
#X connect 26 0 14 0;
#X connect 26 0 33 0;
#X connect 27 0 31 0;
#X connect 27 1 28 0;
#X connect 30 0 4 0;
#X connect 31 0 9 0;
#X connect 31 0 56 0;
#X connect 32 0 8 0;
#X connect 34 0 57 1;
#X connect 35 0 58 1;
#X connect 36 0 59 1;
#X connect 39 0 15 0;
#X connect 39 0 38 0;
#X connect 42 0 54 0;
#X connect 43 0 44 0;
#X connect 44 0 43 1;
#X connect 44 0 53 0;
#X connect 45 0 54 0;
#X connect 47 0 59 0;
#X connect 48 0 57 0;
#X connect 49 0 58 0;
#X connect 53 0 46 0;
#X connect 54 0 43 0;
#X connect 57 0 41 0;
#X connect 58 0 40 0;
#X connect 59 0 37 0;
#X connect 60 0 55 0;
